HIERARCHY
ROOT Hips
{
	OFFSET 0.000000 0.000000 0.000000
	CHANNELS 6 Xposition Yposition Zposition Zrotation Yrotation Xrotation 
	JOINT LHipJoint
	{
		OFFSET 0.000000 0.000000 0.000000
		CHANNELS 3 Zrotation Yrotation Xrotation
		JOINT LeftUpLeg
		{
			OFFSET 1.363060 -1.794630 0.839290
			CHANNELS 3 Zrotation Yrotation Xrotation
			JOINT LeftLeg
			{
				OFFSET 2.448110 -6.726130 0.000000
				CHANNELS 3 Zrotation Yrotation Xrotation
				JOINT LeftFoot
				{
					OFFSET 2.562200 -7.039590 0.000000
					CHANNELS 3 Zrotation Yrotation Xrotation
					JOINT LeftToeBase
					{
						OFFSET 0.157640 -0.433110 2.322550
						CHANNELS 3 Zrotation Yrotation Xrotation
						End Site
						{
							OFFSET 0.000000 0.000000 0.000000
						}
					}
				}
			}
		}
	}
	JOINT RHipJoint
	{
		OFFSET 0.000000 0.000000 0.000000
		CHANNELS 3 Zrotation Yrotation Xrotation
		JOINT RightUpLeg
		{
			OFFSET -1.305520 -1.794630 0.839290
			CHANNELS 3 Zrotation Yrotation Xrotation
			JOINT RightLeg
			{
				OFFSET -2.542530 -6.985550 0.000000
				CHANNELS 3 Zrotation Yrotation Xrotation
				JOINT RightFoot
				{
					OFFSET -2.568260 -7.056230 0.000000
					CHANNELS 3 Zrotation Yrotation Xrotation
					JOINT RightToeBase
					{
						OFFSET -0.164730 -0.452590 2.363150
						CHANNELS 3 Zrotation Yrotation Xrotation
						End Site
						{
							OFFSET 0.000000 0.000000 0.000000
						}
					}
				}
			}
		}
	}
	JOINT LowerBack
	{
		OFFSET 0.000000 0.000000 0.000000
		CHANNELS 3 Zrotation Yrotation Xrotation
		JOINT Spine
		{
			OFFSET 0.028270 2.035590 -0.193380
			CHANNELS 3 Zrotation Yrotation Xrotation
			JOINT Spine1
			{
				OFFSET 0.056720 2.048850 -0.042750
				CHANNELS 3 Zrotation Yrotation Xrotation
				JOINT Neck
				{
					OFFSET 0.000000 0.000000 0.000000
					CHANNELS 3 Zrotation Yrotation Xrotation
					JOINT Neck1
					{
						OFFSET -0.054170 1.746240 0.172020
						CHANNELS 3 Zrotation Yrotation Xrotation
						JOINT Head
						{
							OFFSET 0.104070 1.761360 -0.123970
							CHANNELS 3 Zrotation Yrotation Xrotation
							End Site
							{
								OFFSET 0.000000 0.000000 0.000000
							}
						}
					}
				}
				JOINT LeftShoulder
				{
					OFFSET 0.000000 0.000000 0.000000
					CHANNELS 3 Zrotation Yrotation Xrotation
					JOINT LeftArm
					{
						OFFSET 3.362410 1.200890 -0.311210
						CHANNELS 3 Zrotation Yrotation Xrotation
						JOINT LeftForeArm
						{
							OFFSET 4.983000 -0.000000 -0.000000
							CHANNELS 3 Zrotation Yrotation Xrotation
							JOINT LeftHand
							{
								OFFSET 3.483560 -0.000000 -0.000000
								CHANNELS 3 Zrotation Yrotation Xrotation
								JOINT LeftFingerBase
								{
									OFFSET 0.000000 0.000000 0.000000
									CHANNELS 3 Zrotation Yrotation Xrotation
									JOINT LeftHandIndex1
									{
										OFFSET 0.715260 -0.000000 -0.000000
										CHANNELS 3 Zrotation Yrotation Xrotation
										End Site
										{
											OFFSET 0.000000 0.000000 0.000000
										}
									}
								}
								JOINT LThumb
								{
									OFFSET 0.000000 0.000000 0.000000
									CHANNELS 3 Zrotation Yrotation Xrotation
									End Site
									{
										OFFSET 0.000000 0.000000 0.000000
									}
								}
							}
						}
					}
				}
				JOINT RightShoulder
				{
					OFFSET 0.000000 0.000000 0.000000
					CHANNELS 3 Zrotation Yrotation Xrotation
					JOINT RightArm
					{
						OFFSET -3.136600 1.374050 -0.404650
						CHANNELS 3 Zrotation Yrotation Xrotation
						JOINT RightForeArm
						{
							OFFSET -5.241900 -0.000000 -0.000000
							CHANNELS 3 Zrotation Yrotation Xrotation
							JOINT RightHand
							{
								OFFSET -3.444170 -0.000000 -0.000000
								CHANNELS 3 Zrotation Yrotation Xrotation
								JOINT RightFingerBase
								{
									OFFSET 0.000000 0.000000 0.000000
									CHANNELS 3 Zrotation Yrotation Xrotation
									JOINT RightHandIndex1
									{
										OFFSET -0.622530 -0.000000 -0.000000
										CHANNELS 3 Zrotation Yrotation Xrotation
										End Site
										{
											OFFSET 0.000000 0.000000 0.000000
										}
									}
								}
								JOINT RThumb
								{
									OFFSET 0.000000 0.000000 0.000000
									CHANNELS 3 Zrotation Yrotation Xrotation
									End Site
									{
										OFFSET 0.000000 0.000000 0.000000
									}
								}
							}
						}
					}
				}
			}
		}
	}
}
MOTION
Frames: 8
Frame Time: 0.008333
0.445165 18.264050 7.745909 0.929101 -6.461037 4.436841 -2.442931 5.001434 6.361782 -17.347499 -0.268170 -5.473899 14.556647 16.229428 74.459362 1.793174 -2.534075 32.303694 0.000800 0.177900 0.488700 4.154416 -1.986039 1.254305 18.157216 11.242225 -31.273493 -1.946631 -10.619631 33.218913 0.089096 -5.384220 20.721601 -0.145400 -2.457700 6.772400 -1.255004 -1.014400 12.191254 2.635453 -0.988314 -1.035729 2.858982 -1.000852 -9.875331 -6.222954 -3.543462 -15.324837 8.068057 -3.852473 7.775132 1.454100 -1.501400 6.991800 -4.830048 1.625858 -0.718989 -80.246132 12.687567 44.126106 122.071651 -56.878234 -89.297881 -0.173196 -0.641667 -34.958143 21.082719 0.703920 0.457900 -7.125000 0.000000 0.000000 -3.971500 31.209500 1.341700 8.806694 -1.591756 -3.747670 73.361495 -29.336321 38.690761 -115.861995 60.566675 -83.893599 0.315749 -0.628470 -13.454142 -20.854179 36.557735 -13.090300 7.125000 0.000000 0.000000 6.877400 8.928500 7.914400 
0.435867 18.157124 8.264114 0.695596 -6.777300 4.332200 -2.158687 4.966670 6.041955 -16.520452 0.342460 -7.721562 16.115401 16.668124 79.110353 1.448559 -1.415809 29.879912 0.001500 -0.252800 -0.694500 3.918117 -2.189925 1.485495 18.858504 12.316807 -30.410742 -2.647082 -11.214540 35.925648 0.123914 -4.425577 16.908062 -0.144500 -2.449400 6.749200 -1.051529 -0.774955 12.334633 2.679421 -0.650498 -0.948426 2.795253 -0.823215 -9.765239 -6.147763 -3.615945 -15.780197 7.882670 -3.908722 7.962198 1.368900 -1.529100 7.134400 -4.837843 1.667461 -0.760542 -80.516165 13.334969 43.885198 120.942308 -57.217753 -88.429401 -0.142291 -0.669525 -34.615336 20.471996 2.157642 1.015500 -7.125000 0.000000 0.000000 -4.561500 32.794700 1.367600 8.837792 -1.570767 -3.629252 73.558945 -27.482330 39.041053 -115.370337 60.583241 -83.535153 0.342823 -0.632811 -13.955689 -20.806373 36.743701 -13.127200 7.125000 0.000000 0.000000 6.926200 9.114500 7.990000 
0.427189 18.031395 8.767856 0.425182 -6.852364 4.199929 -1.889558 4.923571 5.743582 -15.506518 0.788923 -10.033229 17.576943 17.025710 83.693405 1.281235 -1.304892 27.891749 0.038200 -1.261700 -3.469200 3.732960 -2.365124 1.681197 19.623901 13.142117 -29.589286 -3.363462 -11.734122 38.252919 0.605672 -5.022094 13.434704 -0.146900 -2.470200 6.807000 -0.758891 -0.619753 12.556528 2.714743 -0.406677 -0.853283 2.675214 -0.696800 -9.667541 -6.067603 -3.699016 -16.271249 7.776731 -3.981430 8.126231 1.311600 -1.557500 7.277900 -4.845773 1.708809 -0.801850 -80.749273 14.028064 43.689006 119.916420 -57.518104 -87.635483 -0.122582 -0.695748 -34.688383 20.296182 3.189184 1.408600 -7.125000 0.000000 0.000000 -4.784300 33.921200 1.304000 8.857646 -1.544942 -3.511421 73.800415 -25.629735 39.473327 -115.340520 60.482509 -83.521224 0.350922 -0.634474 -14.445218 -20.375094 36.631431 -12.812900 7.125000 0.000000 0.000000 7.134000 8.910800 8.212000 
0.420887 17.872193 9.238331 -0.551005 -7.054892 4.245785 -1.614596 4.889441 5.418725 -13.552571 1.244182 -12.861121 19.030884 17.412477 88.351887 1.311564 -2.141435 26.544036 0.037100 -1.242900 -3.417300 3.667583 -2.587313 1.933977 21.067585 14.216655 -27.958038 -3.971305 -12.009100 40.017519 1.352011 -6.401980 9.946353 -0.312400 -3.593000 9.934400 0.191017 -0.463281 12.848753 2.859947 -0.034051 -0.754999 2.352648 -0.522504 -9.625216 -5.874365 -3.727381 -16.683920 7.721229 -4.024278 8.106559 1.257100 -1.570800 7.337300 -4.844137 1.742811 -0.839902 -80.848685 14.575197 43.542461 118.803001 -57.834961 -86.773421 -0.116548 -0.724187 -35.006555 20.690791 3.846210 1.702300 -7.125000 0.000000 0.000000 -4.504000 34.663500 1.145900 8.886409 -1.518474 -3.394422 73.925840 -23.804878 40.121617 -115.762794 60.274957 -83.839090 0.361200 -0.629272 -14.867720 -20.452712 35.972672 -12.679000 7.125000 0.000000 0.000000 6.977600 8.270900 7.964000 
0.412105 17.757932 9.703539 -2.034901 -7.593490 4.343893 -1.283462 4.857262 5.090307 -10.885677 2.083365 -15.947883 20.374844 17.807870 92.650685 1.492283 -3.779697 25.821543 0.002900 -0.347900 -0.955800 3.600650 -2.775238 2.171505 23.340986 15.152774 -26.318247 -4.447866 -12.138691 41.377050 2.034936 -7.759779 6.967325 -0.262300 -3.294700 9.100300 1.584314 -0.218385 13.357776 3.064770 0.552803 -0.678661 1.843420 -0.263704 -9.747078 -5.617498 -3.672515 -16.991851 7.697685 -3.989115 7.964181 1.214600 -1.547800 7.331700 -4.837702 1.760761 -0.876706 -80.808000 15.223023 43.711289 117.788045 -58.123551 -86.001575 -0.133448 -0.724477 -35.789004 21.147129 2.746928 1.303500 -7.125000 0.000000 0.000000 -4.028600 33.490400 1.139200 8.924076 -1.498338 -3.276476 74.118471 -21.739576 40.740760 -115.846595 60.140060 -83.905988 0.371584 -0.628553 -15.060862 -20.410363 35.593986 -12.547900 7.125000 0.000000 0.000000 6.933200 7.886300 7.873000 
0.403221 17.677143 10.185998 -3.372719 -8.241433 4.533784 -0.928400 4.785487 4.763049 -8.430470 2.976616 -19.025802 21.601749 18.172056 96.390948 1.625670 -5.117337 25.348566 0.081900 1.846300 5.081100 3.534955 -2.928687 2.397184 25.484847 15.866430 -24.677505 -4.780992 -12.160561 42.215427 2.799487 -9.449818 4.620514 -0.073700 -1.751200 4.818400 2.760613 0.094274 13.727879 3.282494 1.200597 -0.712959 1.457958 0.028077 -10.003322 -5.486243 -3.621009 -17.072525 7.687595 -3.949154 7.897727 1.199400 -1.526700 7.319000 -4.824134 1.778710 -0.920225 -80.897704 16.332931 43.611027 117.073756 -58.322974 -85.457991 -0.133698 -0.723808 -35.206258 20.968789 2.623145 1.244700 -7.125000 0.000000 0.000000 -4.170100 33.357200 1.192800 8.967340 -1.482756 -3.176014 74.101166 -19.819510 41.361463 -115.942594 60.021469 -83.988150 0.372640 -0.633013 -15.257282 -20.178741 35.619769 -12.406300 7.125000 0.000000 0.000000 7.063500 7.866600 8.021100 
0.400741 17.610508 10.681992 -3.976187 -8.494761 4.870327 -0.612693 4.578488 4.401353 -7.061362 3.274837 -22.307926 22.709916 18.466361 99.640171 1.624196 -5.648848 24.808409 0.301200 3.528600 9.754000 3.479558 -3.021758 2.612521 26.524860 16.279751 -23.231591 -5.012932 -12.173076 42.811348 3.434698 -10.892700 2.561158 -0.009100 -0.615000 1.690000 3.280185 0.278944 13.587356 3.402549 1.525469 -0.769471 1.322774 0.197125 -9.990996 -5.431713 -3.580442 -17.210115 7.655053 -3.896460 7.887554 1.185900 -1.502100 7.331300 -4.813825 1.817420 -0.968522 -81.220225 17.545275 43.146210 116.402139 -58.505788 -84.963424 -0.128702 -0.705314 -34.184339 20.106133 2.178222 1.020000 -7.125000 0.000000 0.000000 -4.857400 32.851600 1.450100 8.999891 -1.465786 -3.066769 73.875703 -17.755771 42.382015 -116.384534 59.819335 -84.315707 0.393395 -0.627608 -15.665178 -20.820928 35.121391 -12.683400 7.125000 0.000000 0.000000 6.628500 7.512200 7.485400 
0.395886 17.553584 11.155670 -4.213918 -8.620990 5.111899 -0.268857 4.278976 3.984045 -6.159984 3.389901 -26.100785 23.749955 18.754272 102.653472 1.574228 -6.185143 23.890993 0.274000 3.366800 9.301800 3.419854 -3.091077 2.824987 27.045647 16.721336 -21.821612 -5.195564 -12.178519 43.362682 3.819232 -11.768496 0.568632 -0.001100 -0.213000 0.585100 3.432978 0.454185 13.622127 3.419093 1.756817 -0.791390 1.204774 0.331718 -9.974582 -5.340236 -3.655324 -17.627327 7.703684 -3.984703 7.945514 1.180400 -1.527600 7.425400 -4.815310 1.866903 -1.020539 -81.420464 18.648295 42.821523 115.940627 -58.638033 -84.625003 -0.134874 -0.687609 -33.548663 19.684033 1.447934 0.724100 -7.125000 0.000000 0.000000 -5.152700 32.051900 1.638600 9.014023 -1.427508 -2.945824 73.705022 -15.459210 43.588235 -117.152208 59.519327 -84.882558 0.425888 -0.609898 -15.484139 -22.254635 33.637052 -13.149700 7.125000 0.000000 0.000000 5.581600 6.332600 6.191200 
